<?xml version="1.0" encoding="UTF-8" standalone="no"?>
<!-- Created with Inkscape (http://www.inkscape.org/) -->

<svg
   xmlns:dc="http://purl.org/dc/elements/1.1/"
   xmlns:cc="http://creativecommons.org/ns#"
   xmlns:rdf="http://www.w3.org/1999/02/22-rdf-syntax-ns#"
   xmlns:svg="http://www.w3.org/2000/svg"
   xmlns="http://www.w3.org/2000/svg"
   xmlns:xlink="http://www.w3.org/1999/xlink"
   xmlns:sodipodi="http://sodipodi.sourceforge.net/DTD/sodipodi-0.dtd"
   xmlns:inkscape="http://www.inkscape.org/namespaces/inkscape"
   id="svg2"
   sodipodi:docname="perfil-de-ma.svg"
   viewBox="0 0 666.01 683.33"
   sodipodi:version="0.32"
   version="1.0"
   inkscape:output_extension="org.inkscape.output.svg.inkscape"
   inkscape:version="0.48.3.1 r9886"
   width="100%"
   height="100%">
  <defs
     id="defs8">
    <linearGradient
       inkscape:collect="always"
       id="linearGradient3877">
      <stop
         style="stop-color:#ffffff;stop-opacity:1;"
         offset="0"
         id="stop3879" />
      <stop
         style="stop-color:#ffffff;stop-opacity:0;"
         offset="1"
         id="stop3881" />
    </linearGradient>
    <radialGradient
       inkscape:collect="always"
       xlink:href="#linearGradient3877"
       id="radialGradient3883"
       cx="-494.11954"
       cy="478.63766"
       fx="-494.11954"
       fy="478.63766"
       r="365.81406"
       gradientTransform="matrix(0.98992628,0.14158385,0.06053817,0.90429179,784.56519,-23.026396)"
       gradientUnits="userSpaceOnUse" />
    <radialGradient
       inkscape:collect="always"
       xlink:href="#linearGradient3877"
       id="radialGradient3886"
       gradientUnits="userSpaceOnUse"
       gradientTransform="matrix(0.98992628,0.14158385,0.06053817,0.90429179,17.2809,66.169172)"
       cx="-494.11954"
       cy="478.63766"
       fx="-494.11954"
       fy="478.63766"
       r="365.81406" />
  </defs>
  <sodipodi:namedview
     id="base"
     bordercolor="#666666"
     inkscape:pageshadow="2"
     guidetolerance="10"
     pagecolor="#ffffff"
     gridtolerance="10000"
     inkscape:window-height="1056"
     inkscape:zoom="0.7"
     objecttolerance="10"
     showgrid="false"
     borderopacity="1.0"
     inkscape:current-layer="capa1"
     inkscape:cx="544.7413"
     inkscape:cy="539.69231"
     inkscape:window-y="24"
     inkscape:window-x="65"
     inkscape:window-width="1855"
     inkscape:pageopacity="0.0"
     inkscape:document-units="px"
     inkscape:window-maximized="1" />
  <g
     id="capa1"
     inkscape:label="Capa 1"
     inkscape:groupmode="layer"
     transform="translate(781.57,-67.767)">
    <path
       style="fill:url(#radialGradient3886);fill-opacity:1"
       d="m -827.15929,46.445568 44.28125,661.593742 724.28125,103.59375 -44.3125,-661.59374 -724.25,-103.593752 z m 281.46875,136.281252 c 2.62919,0.052 5.26368,0.76879 7.71875,2.21875 7.56152,4.46352 11.35632,10.49324 19.5,30.96874 3.25968,8.18642 7.63311,19.02318 9.6875,24.09375 2.05962,5.06879 5.63702,14.79105 7.96875,21.59375 4.18226,12.19781 4.23735,12.41957 3.78125,15.28125 -0.43614,2.73238 -0.29464,3.3724 2.28125,10.90625 2.09927,6.13986 3.08404,8.42578 4.28125,9.8125 0.91384,1.06956 1.61456,2.41983 1.6875,3.28125 0.0866,1.05501 0.73993,1.99321 2.34375,3.375 2.2396,1.92834 2.23693,1.93643 6.21875,13.71875 5.09047,15.04202 5.15992,16.41927 1.09375,22.46875 -1.91662,2.8537 -2.56507,4.32612 -2.28125,5.15625 0.31775,0.92934 -0.31725,3.49888 -0.8125,3.3125 -0.0665,-0.024 -3.08907,0.70359 -6.75,1.59375 -7.60751,1.84884 -7.27153,1.9383 -13.21875,-3.125 -3.40746,-2.9052 -3.39265,-2.90625 -7.25,-13.25 -2.12544,-5.68773 -5.26984,-13.22465 -7,-16.75 -2.68931,-5.49492 -3.29279,-7.14447 -4.125,-11.4375 -1.71178,-8.84395 -6.24397,-21.25688 -8.84375,-24.1875 -1.84816,-2.07965 -2.76797,-3.85994 -5.84375,-11.59375 -2.00539,-5.02959 -3.79629,-9.29933 -4,-9.46875 -1.35281,-1.10842 -7.15516,-11.56012 -8.375,-15.09375 -0.78696,-2.28621 -2.36401,-5.76874 -3.53125,-7.75 -1.16724,-1.98125 -3.46441,-7.09002 -5.09375,-11.34375 -1.63463,-4.25218 -4.09099,-10.62122 -5.46875,-14.15625 -2.92062,-7.50171 -3.21144,-9.75578 -1.875,-15.125 2.23312,-8.95897 10.01869,-14.65585 17.90625,-14.49999 z m 114.21875,3.6875 c 0.94387,-0.0177 1.91342,0.11372 3.4375,0.34375 10.79241,1.63338 18.29306,8.60199 22.5,20.90624 2.77778,8.12433 3.53472,13.05482 3.25,21.3125 -0.13974,4.05972 -0.0542,10.0617 0.1875,13.34375 0.52809,7.17272 1.00909,20.07051 1.125,29.6875 0.0437,3.86289 0.2601,9.18976 0.46875,11.8125 0.21041,2.62793 0.21595,6.49647 0,8.59375 -0.21936,2.10431 -0.35713,3.93197 -0.3125,4.0625 0.0446,0.13052 -0.5888,2.17792 -1.40625,4.5625 -0.81745,2.3846 -1.45402,5.16377 -1.40625,6.15625 0.14636,2.91809 1.61376,6.57809 2.8125,7.03125 1.77628,0.67557 5.30581,4.50169 6.53125,7.0625 1.49846,3.12056 1.62695,4.80078 0.53125,7.53125 -0.613,1.51581 -0.87066,5.12989 -0.78125,11.53125 0.13631,9.31847 0.15186,9.30625 2.40625,12.25 2.83951,3.70002 4.10552,9.41716 3.65625,16.5625 -0.23338,3.68354 0.37572,6.86226 2.09375,10.625 2.48833,5.45286 3.55527,11.09467 2.84375,15 -0.43716,2.37121 -0.31464,4.24052 0.40625,7.21875 1.57123,6.45452 2.33028,13.73272 2.5625,24.40625 0.30419,13.90278 -0.0108,12.65233 3.3125,13.65625 1.55485,0.47136 5.51327,2.12829 8.78125,3.6875 3.26621,1.55399 7.4952,3.42764 9.40625,4.15625 1.91804,0.73205 4.29011,2.09988 5.25,3.03125 1.16909,1.13391 2.57448,1.79162 4.3125,2.03125 1.42355,0.1897 3.69872,0.8318 5.03125,1.4375 3.02939,1.39006 9.03942,3.0365 9.96875,2.71875 0.38635,-0.1321 0.86702,-0.79546 1.0625,-1.46875 0.19891,-0.68029 1.21825,-2.13222 2.28125,-3.21875 1.86974,-1.91633 2.52156,-2.90066 4.53125,-6.8125 0.51743,-1.0108 1.88814,-2.76691 3.03125,-3.875 1.1431,-1.10809 2.14615,-2.27737 2.21875,-2.59375 0.0726,-0.31638 1.15585,-1.56065 2.40625,-2.78125 1.24699,-1.21357 2.39695,-2.7903 2.5625,-3.5 0.1603,-0.70793 0.60843,-1.39737 1,-1.53125 0.3968,-0.13567 0.89033,-0.70228 1.09375,-1.25 0.57989,-1.51031 2.60955,-3.35649 5.65625,-5.15625 1.5129,-0.89631 3.46964,-2.57434 4.34375,-3.71875 1.93827,-2.53455 6.59231,-7.57775 7.1875,-7.78125 1.35746,-0.46412 2.86468,-4.13222 3.4375,-8.375 0.59785,-4.39128 3.9329,-14.52061 5.28125,-16.03125 0.30772,-0.35012 1.67614,-2.64778 3.03125,-5.09375 7.28794,-13.12228 10.01824,-16.86979 14.40625,-19.78125 10.41695,-6.92632 22.78019,-5.14969 30.0625,4.34375 4.34945,5.6679 4.85224,9.69975 3.65625,29.03125 -0.25543,4.10511 -1.84341,10.66817 -3.65625,15.125 -2.36136,5.80479 -9.45262,15.59646 -12.875,17.78125 -0.82773,0.52791 -1.49799,1.61015 -1.6875,2.71875 -0.88897,5.21975 -3.09853,8.05752 -8.21875,10.53125 -3.98325,1.92755 -5.49283,5.90394 -4.84375,12.65625 0.33644,3.49454 -1.35399,9.63643 -3.875,14.21875 -4.29509,7.81882 -7.67899,15.03734 -8.5,18.09375 -0.91751,3.43928 -4.30591,10.34464 -5.46875,11.15625 -5.84907,4.0583 -7.62615,5.50468 -8.875,7.15625 -0.8083,1.08108 -1.79601,2.06433 -2.15625,2.1875 -0.36547,0.12496 -0.99219,0.72984 -1.40625,1.34375 -0.41405,0.6139 -1.06508,1.22532 -1.46875,1.375 -0.39842,0.14796 -1.36081,1.20194 -2.125,2.34375 -0.75899,1.14003 -2.41795,2.89182 -3.65625,3.875 -1.2453,0.97976 -2.59237,2.41835 -3,3.1875 -0.41284,0.77094 -1.54329,2.0749 -2.53125,2.9375 -0.98273,0.86083 -2.41197,2.79734 -3.1875,4.28125 -1.67832,3.20958 -8.42085,10.45895 -10.375,11.15625 -1.7732,0.62963 -3.0516,2.07277 -3.84375,4.34375 -0.34654,0.999 -1.60304,3.09088 -2.78125,4.625 -1.17822,1.53411 -2.91405,4.12008 -3.84375,5.75 -1.94213,3.39307 -7.12306,8.21062 -12.78125,11.90625 -2.14593,1.39849 -4.5135,3.08999 -5.25,3.75 -3.29599,2.96378 -4.04007,3.54267 -7.15625,5.15625 -4.60036,2.38929 -10.67119,5.62235 -17.59375,9.40625 -3.24233,1.77334 -8.97778,4.56537 -12.75,6.1875 -11.62959,5.00841 -14.15285,6.62879 -17.5625,11.375 -6.41872,8.94143 -12.50642,12.82535 -23.78125,15.1875 -0.89715,0.19012 -4.67481,1.00595 -8.375,1.78125 -9.29751,1.95433 -12.47373,1.59684 -20.0625,-2.28125 -7.61679,-3.89182 -12.02802,-6.95991 -14.5,-10.0625 -2.00154,-2.51121 -3.04332,-4.47525 -9.59375,-18.3125 -3.19799,-6.74386 -3.63281,-7.41903 -6.09375,-9.3125 -5.40291,-4.1706 -6.46257,-5.73984 -9.4375,-13.65625 -2.58122,-6.86725 -2.83399,-7.29444 -4.875,-8.8125 -2.15858,-1.60615 -4.76196,-5.36258 -5.78125,-8.34375 -0.41057,-1.20082 -1.32838,-1.95854 -3.6875,-3.09375 -1.71813,-0.82956 -4.14356,-2.5758 -5.375,-3.875 -1.23143,-1.29919 -2.86076,-2.55855 -3.625,-2.78125 -3.15833,-0.91444 -7.5158,-4.92009 -11.40625,-10.5 -3.0242,-4.34246 -4.74181,-5.95075 -5.96875,-5.53125 -1.43053,0.48911 -6.23945,-1.76964 -8.4375,-3.96875 -2.6078,-2.61298 -4.99998,-8.23304 -10.96875,-25.84375 -3.2833,-9.67116 -3.47909,-11.13018 -2.1875,-16.75 0.40188,-1.741 0.92151,-4.51431 1.125,-6.1875 0.77076,-6.40973 4.50134,-13.03437 9.625,-17.03125 3.49159,-2.71578 10.79677,-5.08873 14.25,-4.625 2.67594,0.35629 2.72184,0.31558 3.25,-2.25 0.67967,-3.28216 2.64922,-8.14741 3.40625,-8.40625 0.35503,-0.12138 0.73372,-0.7701 0.84375,-1.4375 0.2283,-1.39593 1.96116,-3.16567 5.625,-5.71875 1.9213,-1.33917 3.26579,-2.94456 5.15625,-6.25 5.92986,-10.33707 10.50252,-11.90076 20.375,-6.9375 4.01309,2.01588 5.1999,2.36145 6.53125,1.90625 1.843,-0.63014 2.87659,-2.50642 2.3125,-4.15625 -0.20707,-0.60562 -0.30746,-1.85775 -0.25,-2.78125 0.0522,-0.92171 -0.84616,-4.50876 -2,-7.96875 -2.57915,-7.731 -2.31436,-11.87772 1.21875,-18.71875 3.38357,-6.545 5.47766,-8.00552 16.59375,-11.71875 10.084,-3.37203 12.74251,-3.66717 19.8125,-2.125 3.50265,0.76172 3.50502,0.7689 6.5625,-2.125 2.57242,-2.43649 3.87524,-3.21413 8.125,-4.90625 3.04771,-1.21698 5.04813,-2.28607 5.0625,-2.6875 0.0146,-0.36655 -0.5458,-3.75522 -1.21875,-7.53125 -2.66169,-14.82862 -3.63529,-28.49542 -2.3125,-31.875 0.2294,-0.5741 0.39268,-2.18377 0.40625,-3.59375 0.0353,-3.58081 1.97958,-8.85131 5.1875,-14.1875 2.73422,-4.5386 2.72207,-4.52959 -0.9375,-15.25 -3.5452,-10.36884 -5.64395,-19.10642 -8.4375,-34.96875 -0.38882,-2.22875 -1.03247,-4.6367 -1.4375,-5.34375 -1.05411,-1.838 -2.97105,-10.6349 -2.84375,-13.09375 0.2304,-4.47675 -0.37248,-7.53136 -3.15625,-15.84375 -2.88797,-8.63423 -2.86805,-8.61332 -2.25,-13.78125 1.21794,-10.13312 5.16015,-15.18322 14.3125,-18.31249 3.46868,-1.18597 4.89563,-1.65797 6.46875,-1.6875 z m -203.375,69.68749 c 0.61778,-0.0115 1.20054,0.0337 1.75,0.125 8.31389,1.37695 15.34247,4.57703 19.34375,8.84375 10.64762,11.34068 18.3628,24.0293 21.78125,35.75 2.14151,7.32084 2.15811,7.30203 6.375,11.3125 2.32377,2.20861 4.78366,4.88886 5.46875,5.9375 3.54209,5.43079 5.93774,9.97017 6.40625,12.125 0.54458,2.5137 8.08562,13.14318 15.6875,22.125 4.92699,5.81447 7.40484,9.85534 7.21875,11.75 -0.11974,1.21887 0.23495,2.09616 1.71875,4.21875 2.74346,3.91363 8.68039,11.75446 9.875,13.03125 1.95299,2.09629 -1.18972,15.5984 -3.84375,16.5 -0.62129,0.21242 -2.57158,-0.12342 -4.34375,-0.71875 -5.67519,-1.91408 -7.20753,-3.3369 -17.21875,-16.125 -4.94835,-6.32032 -5.43167,-6.80362 -10,-10 -6.01043,-4.20781 -15.79403,-14.22854 -20.90625,-21.4375 -2.55433,-3.59927 -5.51809,-7.57667 -6.59375,-8.8125 -1.07043,-1.23763 -5.39027,-6.31471 -9.625,-11.28125 -4.23993,-4.96477 -8.73125,-9.97575 -9.96875,-11.15625 -5.88873,-5.6256 -7.50617,-7.2965 -9.8125,-10.1875 -3.59631,-4.4979 -4.92184,-6.75635 -7.65625,-13.03125 -1.33777,-3.07696 -3.68309,-7.58642 -5.21875,-10.03125 -6.25922,-9.98378 -7.1354,-17.53482 -2.71875,-23.34375 2.30106,-3.02976 7.95678,-5.51293 12.28125,-5.59375 z m -29.65625,163.25 c 0.70524,0.0395 1.13085,0.61298 1.9375,1.8125 1.41388,2.10567 2.66969,2.59885 9.71875,3.6875 2.70435,0.42238 5.50433,1.00764 6.25,1.3125 0.74567,0.30485 2.49611,0.78172 3.875,1.0625 1.37889,0.28078 3.52631,0.93941 4.78125,1.4375 1.25671,0.50334 4.23282,1.10717 6.59375,1.34375 4.28703,0.42939 12.60196,2.23137 15.1875,3.3125 0.74746,0.31007 4.19117,1.11844 7.625,1.78125 13.68821,2.64982 21.45506,8.15834 25.5625,18.125 4.24423,10.28145 3.88473,21.35843 -0.8125,26.125 -2.45853,2.49669 -7.77625,4.82468 -10.4375,4.5625 -3.16764,-0.31064 -6.69055,-2.09827 -8.53125,-4.34375 -2.23699,-2.72228 -15.13469,-10.87124 -20.96875,-13.25 -15.01846,-6.13114 -25.45891,-11.39755 -29.96875,-15.15625 -1.88437,-1.57161 -3.81654,-2.91673 -4.3125,-2.96875 -11.33011,-1.19354 -14.57957,-3.35999 -17.4375,-11.71875 -2.09927,-6.13985 -2.20106,-9.17905 -0.4375,-11.96875 1.33782,-2.10768 1.6514,-2.31393 2.96875,-2.09375 1.14782,0.18484 2.17473,-0.14344 4.75,-1.53125 1.94274,-1.04619 2.95101,-1.57075 3.65625,-1.53125 z"
       id="rect3057"
       inkscape:connector-curvature="0" />
  </g>
  <metadata
     id="metadata6">
    <rdf:RDF>
      <cc:Work>
        <dc:format>image/svg+xml</dc:format>
        <dc:type
           rdf:resource="http://purl.org/dc/dcmitype/StillImage" />
        <cc:license
           rdf:resource="http://creativecommons.org/licenses/publicdomain/" />
        <dc:publisher>
          <cc:Agent
             rdf:about="http://openclipart.org/">
            <dc:title>Openclipart</dc:title>
          </cc:Agent>
        </dc:publisher>
        <dc:title></dc:title>
      </cc:Work>
      <cc:License
         rdf:about="http://creativecommons.org/licenses/publicdomain/">
        <cc:permits
           rdf:resource="http://creativecommons.org/ns#Reproduction" />
        <cc:permits
           rdf:resource="http://creativecommons.org/ns#Distribution" />
        <cc:permits
           rdf:resource="http://creativecommons.org/ns#DerivativeWorks" />
      </cc:License>
    </rdf:RDF>
  </metadata>
</svg>
