<?xml version="1.0" encoding="UTF-8" standalone="no"?>
<!-- Created with Inkscape (http://www.inkscape.org/) -->

<svg
   xmlns:dc="http://purl.org/dc/elements/1.1/"
   xmlns:cc="http://creativecommons.org/ns#"
   xmlns:rdf="http://www.w3.org/1999/02/22-rdf-syntax-ns#"
   xmlns:svg="http://www.w3.org/2000/svg"
   xmlns="http://www.w3.org/2000/svg"
   xmlns:xlink="http://www.w3.org/1999/xlink"
   xmlns:sodipodi="http://sodipodi.sourceforge.net/DTD/sodipodi-0.dtd"
   xmlns:inkscape="http://www.inkscape.org/namespaces/inkscape"
   id="svg2"
   sodipodi:docname="perfil-de-ma.svg"
   viewBox="0 0 657.01 683.33"
   sodipodi:version="0.32"
   version="1.0"
   inkscape:output_extension="org.inkscape.output.svg.inkscape"
   inkscape:version="0.48.3.1 r9886"
   width="100%"
   height="100%">
  <defs
     id="defs8">
    <linearGradient
       inkscape:collect="always"
       id="linearGradient3845">
      <stop
         style="stop-color:#ff6600;stop-opacity:1;"
         offset="0"
         id="stop3847" />
      <stop
         style="stop-color:#ff6600;stop-opacity:0;"
         offset="1"
         id="stop3849" />
    </linearGradient>
    <radialGradient
       inkscape:collect="always"
       xlink:href="#linearGradient3845"
       id="radialGradient3851"
       cx="71.196411"
       cy="-67.43396"
       fx="71.196411"
       fy="-67.43396"
       r="1413.1016"
       gradientTransform="matrix(0.22610116,0.03052372,0.0121781,0.23488554,309.12279,353.50847)"
       gradientUnits="userSpaceOnUse" />
  </defs>
  <sodipodi:namedview
     id="base"
     bordercolor="#666666"
     inkscape:pageshadow="2"
     guidetolerance="10"
     pagecolor="#ffffff"
     gridtolerance="10000"
     inkscape:window-height="1056"
     inkscape:zoom="0.7"
     objecttolerance="10"
     showgrid="false"
     borderopacity="1.0"
     inkscape:current-layer="capa1"
     inkscape:cx="352.71885"
     inkscape:cy="290.71916"
     inkscape:window-y="24"
     inkscape:window-x="65"
     inkscape:window-width="1855"
     inkscape:pageopacity="0.0"
     inkscape:document-units="px"
     inkscape:window-maximized="1" />
  <g
     id="capa1"
     inkscape:label="Capa 1"
     inkscape:groupmode="layer"
     transform="translate(781.57,-67.767)">
    <path
       style="fill:url(#radialGradient3851);fill-opacity:1"
       d="M -59.875 -42.75 L -15.59375 618.84375 L 708.6875 722.4375 L 664.375 60.84375 L -59.875 -42.75 z M 221.59375 93.53125 C 224.22294 93.583204 226.85743 94.300037 229.3125 95.75 C 236.87402 100.21352 240.66882 106.24325 248.8125 126.71875 C 252.07218 134.90517 256.44561 145.74193 258.5 150.8125 C 260.55962 155.88129 264.13702 165.60355 266.46875 172.40625 C 270.65101 184.60406 270.7061 184.82582 270.25 187.6875 C 269.81386 190.41988 269.95536 191.0599 272.53125 198.59375 C 274.63052 204.73361 275.61529 207.01953 276.8125 208.40625 C 277.72634 209.47581 278.42706 210.82608 278.5 211.6875 C 278.5866 212.74251 279.23993 213.68071 280.84375 215.0625 C 283.08335 216.99084 283.08068 216.99893 287.0625 228.78125 C 292.15297 243.82327 292.22242 245.20052 288.15625 251.25 C 286.23963 254.1037 285.59118 255.57612 285.875 256.40625 C 286.19275 257.33559 285.55775 259.90513 285.0625 259.71875 C 284.996 259.69475 281.97343 260.42234 278.3125 261.3125 C 270.70499 263.16134 271.04097 263.2508 265.09375 258.1875 C 261.68629 255.2823 261.7011 255.28125 257.84375 244.9375 C 255.71831 239.24977 252.57391 231.71285 250.84375 228.1875 C 248.15444 222.69258 247.55096 221.04303 246.71875 216.75 C 245.00697 207.90605 240.47478 195.49312 237.875 192.5625 C 236.02684 190.48285 235.10703 188.70256 232.03125 180.96875 C 230.02586 175.93916 228.23496 171.66942 228.03125 171.5 C 226.67844 170.39158 220.87609 159.93988 219.65625 156.40625 C 218.86929 154.12004 217.29224 150.63751 216.125 148.65625 C 214.95776 146.675 212.66059 141.56623 211.03125 137.3125 C 209.39662 133.06032 206.94026 126.69128 205.5625 123.15625 C 202.64188 115.65454 202.35106 113.40047 203.6875 108.03125 C 205.92062 99.072267 213.70619 93.375387 221.59375 93.53125 z M 335.8125 97.21875 C 336.75637 97.201031 337.72592 97.332471 339.25 97.5625 C 350.04241 99.19588 357.54306 106.1645 361.75 118.46875 C 364.52778 126.59308 365.28472 131.52357 365 139.78125 C 364.86026 143.84097 364.94583 149.84295 365.1875 153.125 C 365.71559 160.29772 366.19659 173.19551 366.3125 182.8125 C 366.3562 186.67539 366.5726 192.00226 366.78125 194.625 C 366.99166 197.25293 366.9972 201.12147 366.78125 203.21875 C 366.56189 205.32306 366.42412 207.15072 366.46875 207.28125 C 366.51335 207.41177 365.87995 209.45917 365.0625 211.84375 C 364.24505 214.22835 363.60848 217.00752 363.65625 218 C 363.80261 220.91809 365.27001 224.57809 366.46875 225.03125 C 368.24503 225.70682 371.77456 229.53294 373 232.09375 C 374.49846 235.21431 374.62695 236.89453 373.53125 239.625 C 372.91825 241.14081 372.66059 244.75489 372.75 251.15625 C 372.88631 260.47472 372.90186 260.4625 375.15625 263.40625 C 377.99576 267.10627 379.26177 272.82341 378.8125 279.96875 C 378.57912 283.65229 379.18822 286.83101 380.90625 290.59375 C 383.39458 296.04661 384.46152 301.68842 383.75 305.59375 C 383.31284 307.96496 383.43536 309.83427 384.15625 312.8125 C 385.72748 319.26702 386.48653 326.54522 386.71875 337.21875 C 387.02294 351.12153 386.70794 349.87108 390.03125 350.875 C 391.5861 351.34636 395.54452 353.00329 398.8125 354.5625 C 402.07871 356.11649 406.3077 357.99014 408.21875 358.71875 C 410.13679 359.4508 412.50886 360.81863 413.46875 361.75 C 414.63784 362.88391 416.04323 363.54162 417.78125 363.78125 C 419.2048 363.97095 421.47997 364.61305 422.8125 365.21875 C 425.84189 366.60881 431.85192 368.25525 432.78125 367.9375 C 433.1676 367.8054 433.64827 367.14204 433.84375 366.46875 C 434.04266 365.78846 435.062 364.33653 436.125 363.25 C 437.99474 361.33367 438.64656 360.34934 440.65625 356.4375 C 441.17368 355.4267 442.54439 353.67059 443.6875 352.5625 C 444.8306 351.45441 445.83365 350.28513 445.90625 349.96875 C 445.97885 349.65237 447.0621 348.4081 448.3125 347.1875 C 449.55949 345.97393 450.70945 344.3972 450.875 343.6875 C 451.0353 342.97957 451.48343 342.29013 451.875 342.15625 C 452.2718 342.02058 452.76533 341.45397 452.96875 340.90625 C 453.54864 339.39594 455.5783 337.54976 458.625 335.75 C 460.1379 334.85369 462.09464 333.17566 462.96875 332.03125 C 464.90702 329.4967 469.56106 324.4535 470.15625 324.25 C 471.51371 323.78588 473.02093 320.11778 473.59375 315.875 C 474.1916 311.48372 477.52665 301.35439 478.875 299.84375 C 479.18272 299.49363 480.55114 297.19597 481.90625 294.75 C 489.19419 281.62772 491.92449 277.88021 496.3125 274.96875 C 506.72945 268.04243 519.09269 269.81906 526.375 279.3125 C 530.72445 284.9804 531.22724 289.01225 530.03125 308.34375 C 529.77582 312.44886 528.18784 319.01192 526.375 323.46875 C 524.01364 329.27354 516.92238 339.06521 513.5 341.25 C 512.67227 341.77791 512.00201 342.86015 511.8125 343.96875 C 510.92353 349.1885 508.71397 352.02627 503.59375 354.5 C 499.6105 356.42755 498.10092 360.40394 498.75 367.15625 C 499.08644 370.65079 497.39601 376.79268 494.875 381.375 C 490.57991 389.19382 487.19601 396.41234 486.375 399.46875 C 485.45749 402.90803 482.06909 409.81339 480.90625 410.625 C 475.05718 414.6833 473.2801 416.12968 472.03125 417.78125 C 471.22295 418.86233 470.23524 419.84558 469.875 419.96875 C 469.50953 420.09371 468.88281 420.69859 468.46875 421.3125 C 468.0547 421.9264 467.40367 422.53782 467 422.6875 C 466.60158 422.83546 465.63919 423.88944 464.875 425.03125 C 464.11601 426.17128 462.45705 427.92307 461.21875 428.90625 C 459.97345 429.88601 458.62638 431.3246 458.21875 432.09375 C 457.80591 432.86469 456.67546 434.16865 455.6875 435.03125 C 454.70477 435.89208 453.27553 437.82859 452.5 439.3125 C 450.82168 442.52208 444.07915 449.77145 442.125 450.46875 C 440.3518 451.09838 439.0734 452.54152 438.28125 454.8125 C 437.93471 455.8115 436.67821 457.90338 435.5 459.4375 C 434.32178 460.97161 432.58595 463.55758 431.65625 465.1875 C 429.71412 468.58057 424.53319 473.39812 418.875 477.09375 C 416.72907 478.49224 414.3615 480.18374 413.625 480.84375 C 410.32901 483.80753 409.58493 484.38642 406.46875 486 C 401.86839 488.38929 395.79756 491.62235 388.875 495.40625 C 385.63267 497.17959 379.89722 499.97162 376.125 501.59375 C 364.49541 506.60216 361.97215 508.22254 358.5625 512.96875 C 352.14378 521.91018 346.05608 525.7941 334.78125 528.15625 C 333.8841 528.34637 330.10644 529.1622 326.40625 529.9375 C 317.10874 531.89183 313.93252 531.53434 306.34375 527.65625 C 298.72696 523.76443 294.31573 520.69634 291.84375 517.59375 C 289.84221 515.08254 288.80043 513.1185 282.25 499.28125 C 279.05201 492.53739 278.61719 491.86222 276.15625 489.96875 C 270.75334 485.79815 269.69368 484.22891 266.71875 476.3125 C 264.13753 469.44525 263.88476 469.01806 261.84375 467.5 C 259.68517 465.89385 257.08179 462.13742 256.0625 459.15625 C 255.65193 457.95543 254.73412 457.19771 252.375 456.0625 C 250.65687 455.23294 248.23144 453.4867 247 452.1875 C 245.76857 450.88831 244.13924 449.62895 243.375 449.40625 C 240.21667 448.49181 235.8592 444.48616 231.96875 438.90625 C 228.94455 434.56379 227.22694 432.9555 226 433.375 C 224.56947 433.86411 219.76055 431.60536 217.5625 429.40625 C 214.9547 426.79327 212.56252 421.17321 206.59375 403.5625 C 203.31045 393.89134 203.11466 392.43232 204.40625 386.8125 C 204.80813 385.0715 205.32776 382.29819 205.53125 380.625 C 206.30201 374.21527 210.03259 367.59063 215.15625 363.59375 C 218.64784 360.87797 225.95302 358.50502 229.40625 358.96875 C 232.08219 359.32504 232.12809 359.28433 232.65625 356.71875 C 233.33592 353.43659 235.30547 348.57134 236.0625 348.3125 C 236.41753 348.19112 236.79622 347.5424 236.90625 346.875 C 237.13455 345.47907 238.86741 343.70933 242.53125 341.15625 C 244.45255 339.81708 245.79704 338.21169 247.6875 334.90625 C 253.61736 324.56918 258.19002 323.00549 268.0625 327.96875 C 272.07559 329.98463 273.2624 330.3302 274.59375 329.875 C 276.43675 329.24486 277.47034 327.36858 276.90625 325.71875 C 276.69918 325.11313 276.59879 323.861 276.65625 322.9375 C 276.70845 322.01579 275.81009 318.42874 274.65625 314.96875 C 272.0771 307.23775 272.34189 303.09103 275.875 296.25 C 279.25857 289.705 281.35266 288.24448 292.46875 284.53125 C 302.55275 281.15922 305.21126 280.86408 312.28125 282.40625 C 315.7839 283.16797 315.78627 283.17515 318.84375 280.28125 C 321.41617 277.84476 322.71899 277.06712 326.96875 275.375 C 330.01646 274.15802 332.01688 273.08893 332.03125 272.6875 C 332.04585 272.32095 331.48545 268.93228 330.8125 265.15625 C 328.15081 250.32763 327.17721 236.66083 328.5 233.28125 C 328.7294 232.70715 328.89268 231.09748 328.90625 229.6875 C 328.94155 226.10669 330.88583 220.83619 334.09375 215.5 C 336.82797 210.9614 336.81582 210.97041 333.15625 200.25 C 329.61105 189.88116 327.5123 181.14358 324.71875 165.28125 C 324.32993 163.0525 323.68628 160.64455 323.28125 159.9375 C 322.22714 158.0995 320.3102 149.3026 320.4375 146.84375 C 320.6679 142.367 320.06502 139.31239 317.28125 131 C 314.39328 122.36577 314.4132 122.38668 315.03125 117.21875 C 316.24919 107.08563 320.1914 102.03552 329.34375 98.90625 C 332.81243 97.720281 334.23938 97.248281 335.8125 97.21875 z M 132.4375 166.90625 C 133.05528 166.8947 133.63804 166.94 134.1875 167.03125 C 142.50139 168.4082 149.52997 171.60828 153.53125 175.875 C 164.17887 187.21568 171.89405 199.9043 175.3125 211.625 C 177.45401 218.94584 177.47061 218.92703 181.6875 222.9375 C 184.01127 225.14611 186.47116 227.82636 187.15625 228.875 C 190.69834 234.30579 193.09399 238.84517 193.5625 241 C 194.10708 243.5137 201.64812 254.14318 209.25 263.125 C 214.17699 268.93947 216.65484 272.98034 216.46875 274.875 C 216.34901 276.09387 216.7037 276.97116 218.1875 279.09375 C 220.93096 283.00738 226.86789 290.84821 228.0625 292.125 C 230.01549 294.22129 226.87278 307.7234 224.21875 308.625 C 223.59746 308.83742 221.64717 308.50158 219.875 307.90625 C 214.19981 305.99217 212.66747 304.56935 202.65625 291.78125 C 197.7079 285.46093 197.22458 284.97763 192.65625 281.78125 C 186.64582 277.57344 176.86222 267.55271 171.75 260.34375 C 169.19567 256.74448 166.23191 252.76708 165.15625 251.53125 C 164.08582 250.29362 159.76598 245.21654 155.53125 240.25 C 151.29132 235.28523 146.8 230.27425 145.5625 229.09375 C 139.67377 223.46815 138.05633 221.79725 135.75 218.90625 C 132.15369 214.40835 130.82816 212.1499 128.09375 205.875 C 126.75598 202.79804 124.41066 198.28858 122.875 195.84375 C 116.61578 185.85997 115.7396 178.30893 120.15625 172.5 C 122.45731 169.47024 128.11303 166.98707 132.4375 166.90625 z M 102.78125 330.15625 C 103.48649 330.19575 103.9121 330.76923 104.71875 331.96875 C 106.13263 334.07442 107.38844 334.5676 114.4375 335.65625 C 117.14185 336.07863 119.94183 336.66389 120.6875 336.96875 C 121.43317 337.2736 123.18361 337.75047 124.5625 338.03125 C 125.94139 338.31203 128.08881 338.97066 129.34375 339.46875 C 130.60046 339.97209 133.57657 340.57592 135.9375 340.8125 C 140.22453 341.24189 148.53946 343.04387 151.125 344.125 C 151.87246 344.43507 155.31617 345.24344 158.75 345.90625 C 172.43821 348.55607 180.20506 354.06459 184.3125 364.03125 C 188.55673 374.3127 188.19723 385.38968 183.5 390.15625 C 181.04147 392.65294 175.72375 394.98093 173.0625 394.71875 C 169.89486 394.40811 166.37195 392.62048 164.53125 390.375 C 162.29426 387.65272 149.39656 379.50376 143.5625 377.125 C 128.54404 370.99386 118.10359 365.72745 113.59375 361.96875 C 111.70938 360.39714 109.77721 359.05202 109.28125 359 C 97.95114 357.80646 94.70168 355.64001 91.84375 347.28125 C 89.74448 341.1414 89.64269 338.1022 91.40625 335.3125 C 92.74407 333.20482 93.05765 332.99857 94.375 333.21875 C 95.52282 333.40359 96.54973 333.07531 99.125 331.6875 C 101.06774 330.64131 102.07601 330.11675 102.78125 330.15625 z "
       transform="translate(-781.57,67.766997)"
       id="rect3057" />
  </g>
  <metadata
     id="metadata6">
    <rdf:RDF>
      <cc:Work>
        <dc:format>image/svg+xml</dc:format>
        <dc:type
           rdf:resource="http://purl.org/dc/dcmitype/StillImage" />
        <cc:license
           rdf:resource="http://creativecommons.org/licenses/publicdomain/" />
        <dc:publisher>
          <cc:Agent
             rdf:about="http://openclipart.org/">
            <dc:title>Openclipart</dc:title>
          </cc:Agent>
        </dc:publisher>
        <dc:title></dc:title>
      </cc:Work>
      <cc:License
         rdf:about="http://creativecommons.org/licenses/publicdomain/">
        <cc:permits
           rdf:resource="http://creativecommons.org/ns#Reproduction" />
        <cc:permits
           rdf:resource="http://creativecommons.org/ns#Distribution" />
        <cc:permits
           rdf:resource="http://creativecommons.org/ns#DerivativeWorks" />
      </cc:License>
    </rdf:RDF>
  </metadata>
</svg>
