<?xml version="1.0" encoding="UTF-8" standalone="no"?>
<!-- Generated by IcoMoon.io -->

<svg
   xmlns:dc="http://purl.org/dc/elements/1.1/"
   xmlns:cc="http://creativecommons.org/ns#"
   xmlns:rdf="http://www.w3.org/1999/02/22-rdf-syntax-ns#"
   xmlns:svg="http://www.w3.org/2000/svg"
   xmlns="http://www.w3.org/2000/svg"
   xmlns:sodipodi="http://sodipodi.sourceforge.net/DTD/sodipodi-0.dtd"
   xmlns:inkscape="http://www.inkscape.org/namespaces/inkscape"
   version="1.1"
   width="51"
   height="44"
   viewBox="0 0 51 44"
   id="svg2"
   inkscape:version="0.48.4 r9939"
   sodipodi:docname="marker_blue.svg">
  <metadata
     id="metadata10">
    <rdf:RDF>
      <cc:Work
         rdf:about="">
        <dc:format>image/svg+xml</dc:format>
        <dc:type
           rdf:resource="http://purl.org/dc/dcmitype/StillImage" />
        <dc:title></dc:title>
      </cc:Work>
    </rdf:RDF>
  </metadata>
  <defs
     id="defs8" />
  <sodipodi:namedview
     pagecolor="#ffffff"
     bordercolor="#666666"
     borderopacity="1"
     objecttolerance="10"
     gridtolerance="10"
     guidetolerance="10"
     inkscape:pageopacity="0"
     inkscape:pageshadow="2"
     inkscape:window-width="1855"
     inkscape:window-height="1056"
     id="namedview6"
     showgrid="false"
     inkscape:zoom="7.375"
     inkscape:cx="-10.305085"
     inkscape:cy="37.694915"
     inkscape:window-x="65"
     inkscape:window-y="24"
     inkscape:window-maximized="1"
     inkscape:current-layer="svg2"
     showguides="true"
     inkscape:guide-bbox="true" />
  <g
     id="g3971"
     transform="translate(-0.13559322,-3.8644068)">
    <path
       inkscape:connector-curvature="0"
       id="rect3887"
       d="m 18.523835,13.712394 c -0.816954,0.181879 -1.655637,0.342921 -2.5,0.5 -1.432261,0.266446 -2.837283,0.48303 -4.21875,0.65625 0.464137,-0.05037 0.924034,-0.08946 1.40625,-0.15625 -0.352402,2.273466 -0.53125,4.750499 -0.53125,7.28125 0,2.530751 0.178848,4.976534 0.53125,7.25 -0.481338,-0.06663 -0.942347,-0.13335 -1.40625,-0.1875 l 0,2.15625 0.3125,0.0625 -0.03125,-0.09375 6.25,1.1875 0.0625,0.125 0.1875,0.03125 -1.40625,-2.5625 c -0.148109,-0.03154 -0.288391,-0.06322 -0.4375,-0.09375 -0.416334,-2.207975 -0.6875,-4.842152 -0.6875,-7.875 0,-3.032847 0.269606,-5.668584 0.6875,-7.875 0.601715,-0.123186 1.19617,-0.267202 1.78125,-0.40625 z"
       style="fill:#ffffff" />
    <path
       transform="matrix(1.173913,0,0,1.0217391,-8.3714074,-0.81945465)"
       d="m 48.135592,22.101694 c 0,8.611898 -2.094396,15.593221 -4.677966,15.593221 -2.583569,0 -4.677966,-6.981323 -4.677966,-15.593221 0,-8.611898 2.094397,-15.5932206 4.677966,-15.5932206 2.58357,0 4.677966,6.9813226 4.677966,15.5932206 z"
       sodipodi:ry="15.593221"
       sodipodi:rx="4.6779661"
       sodipodi:cy="22.101694"
       sodipodi:cx="43.457626"
       id="path3969"
       style="fill:#ffffff"
       sodipodi:type="arc" />
    <path
       inkscape:connector-curvature="0"
       style="fill:#00aad4"
       id="path4"
       d="m 50.305085,21.900294 c 0,-9.790873 -2.864442,-17.7339711 -6.407182,-17.7963431 0.01403,0 0.02807,-0.0016 0.0421,-0.0016 h -4.041718 c 0,0 -9.493046,7.1307001 -23.157232,9.9280921 -0.417894,2.206416 -0.682975,4.836963 -0.682975,7.86981 0,3.032848 0.266641,5.661835 0.682975,7.86981 13.664186,2.797393 23.157232,9.928092 23.157232,9.928092 h 4.041718 c -0.01403,0 -0.02807,-0.0016 -0.0421,-0.0016 3.54274,-0.06229 6.407182,-8.005388 6.407182,-17.796261 z m -7.755981,15.106543 c -0.456876,0 -0.951176,-0.474029 -1.205342,-0.757822 -0.615926,-0.684535 -1.208461,-1.752659 -1.715235,-3.085864 -1.133615,-2.98295 -1.757337,-6.982566 -1.757337,-11.262857 0,-4.280291 0.623722,-8.278348 1.757337,-11.262857 0.506774,-1.3332051 1.099309,-2.4013288 1.715235,-3.0858631 0.254166,-0.283794 0.748466,-0.757822 1.205342,-0.757822 0.456876,0 0.951176,0.474028 1.205343,0.757822 0.615925,0.6845343 1.208461,1.752658 1.715235,3.0858631 1.133614,2.98295 1.757336,6.984125 1.757336,11.262857 0,4.278732 -0.623722,8.278348 -1.757336,11.262857 -0.506774,1.333205 -1.09931,2.401329 -1.715235,3.085864 -0.254167,0.282234 -0.748467,0.757822 -1.205343,0.757822 z M 12.677506,21.900294 c 0,-2.530751 0.185558,-4.991334 0.53796,-7.2648 -2.30777,0.319658 -4.3333068,0.503656 -6.8391093,0.503656 -3.268302,0 -3.268302,0 -3.268302,0 l -2.70227495,4.613982 v 4.295884 l 2.70227495,4.613982 c 0,0 0,0 3.268302,0 2.5042432,0 4.5297793,0.183998 6.8391093,0.503655 -0.352402,-2.273466 -0.53796,-4.734048 -0.53796,-7.264799 z m 5.669632,10.375613 -6.237219,-1.194428 3.988702,15.667893 c 0.205828,0.810838 1.010429,1.219376 1.786963,0.909074 l 5.777223,-2.312449 c 0.776534,-0.310301 1.088394,-1.167919 0.692331,-1.90391 l -6.008,-11.16618 z m 24.201966,-4.55317 c -0.176201,0 -0.366436,-0.182438 -0.464673,-0.29159 -0.237014,-0.263522 -0.466232,-0.675178 -0.661145,-1.189749 -0.436605,-1.150767 -0.676738,-2.69136 -0.676738,-4.341104 0,-1.649744 0.240133,-3.190337 0.676738,-4.341104 0.194913,-0.51457 0.424131,-0.924667 0.661145,-1.189749 0.09824,-0.109151 0.288472,-0.29159 0.464673,-0.29159 0.176202,0 0.366437,0.182439 0.464673,0.29159 0.237014,0.263522 0.466232,0.675179 0.661145,1.189749 0.436605,1.149208 0.676738,2.69136 0.676738,4.341104 0,1.649744 -0.240133,3.190337 -0.676738,4.341104 -0.194913,0.514571 -0.424131,0.924668 -0.661145,1.189749 -0.09824,0.109152 -0.288471,0.29159 -0.464673,0.29159 z" />
  </g>
</svg>
