<?xml version="1.0" encoding="UTF-8" standalone="no"?>
<!-- Generator: Adobe Illustrator 17.1.0, SVG Export Plug-In . SVG Version: 6.00 Build 0)  -->

<svg
   xmlns:dc="http://purl.org/dc/elements/1.1/"
   xmlns:cc="http://creativecommons.org/ns#"
   xmlns:rdf="http://www.w3.org/1999/02/22-rdf-syntax-ns#"
   xmlns:svg="http://www.w3.org/2000/svg"
   xmlns="http://www.w3.org/2000/svg"
   xmlns:sodipodi="http://sodipodi.sourceforge.net/DTD/sodipodi-0.dtd"
   xmlns:inkscape="http://www.inkscape.org/namespaces/inkscape"
   version="1.1"
   id="Calque_1"
   x="0px"
   y="0px"
   viewBox="0 0 362.2 129.7"
   enable-background="new 0 0 425.2 176.7"
   xml:space="preserve"
   inkscape:version="0.48.4 r9939"
   width="100%"
   height="100%"
   sodipodi:docname="sortirlogo.svg"><metadata
     id="metadata65"><rdf:RDF><cc:Work
         rdf:about=""><dc:format>image/svg+xml</dc:format><dc:type
           rdf:resource="http://purl.org/dc/dcmitype/StillImage" /></cc:Work></rdf:RDF></metadata><defs
     id="defs63" /><sodipodi:namedview
     pagecolor="#ffffff"
     bordercolor="#666666"
     borderopacity="1"
     objecttolerance="10"
     gridtolerance="10"
     guidetolerance="10"
     inkscape:pageopacity="0"
     inkscape:pageshadow="2"
     inkscape:window-width="1855"
     inkscape:window-height="1056"
     id="namedview61"
     showgrid="false"
     inkscape:zoom="1.44873"
     inkscape:cx="325.92959"
     inkscape:cy="79.621904"
     inkscape:window-x="65"
     inkscape:window-y="24"
     inkscape:window-maximized="1"
     inkscape:current-layer="Calque_1" /><g
     id="g5"
     transform="translate(-28.300649,-22.840909)"><g
       id="g7"><g
         id="g9"><path
           d="m 54.1,65 c -1.3,4 14.5,3 18.3,3.2 19.8,0.9 38.3,2 42.4,11.3 5.2,11.4 -7.1,22.8 -19,27.7 -17.5,8 -37.8,13.1 -57.6,13.1 -6.2,-3 -7.3,-7.1 -6,-14.7 27.3,1.1 64.2,-8.8 64.2,-18.8 C 97.6,82.5 80.8,83.2 77.3,82.5 67.3,80.8 40.4,82.9 35.7,74.7 29.2,63.4 41.5,50.9 52.3,45 68.6,35.7 89.1,29 107.9,28 c 6,1.8 8.7,6 8.7,14.1 C 88.7,42.7 58.4,51.9 54.1,65 z"
           id="path11"
           inkscape:connector-curvature="0"
           style="fill:#ffffff" /></g><g
         id="g13"><path
           d="m 169.4,107.3 c -11.6,7.4 -28.7,14.8 -42.9,6.7 -6.7,-5 -12.6,-13.7 -12.6,-23.5 0.4,-16.9 11.4,-33 26.8,-41.8 16.2,-0.7 30.4,8.5 37.9,20.7 2.4,12.4 0.3,28.1 -9.2,37.9 z M 149,62.5 c -6.4,-1.8 -9.8,7.5 -15,5.7 -4.7,4.7 -6.6,11.9 -9.1,16.7 -1.7,6.6 -0.5,14.3 5.5,18.4 11.6,5.3 25.3,1.4 34.6,-7.4 4.9,-6 5.9,-15.3 4,-23.4 -3.5,-7.2 -11.8,-10.6 -20,-10 z"
           id="path15"
           inkscape:connector-curvature="0"
           style="fill:#ffffff" /><path
           d="m 247.6,118.5 c -17.8,-4.6 -33.4,-11.9 -46.3,-24.2 -1.6,-11.9 8.6,-3.2 13.6,-8 5.5,-1.7 12.3,-5.9 13.2,-11.5 0.9,-8.1 -6.7,-12.5 -13.5,-16.6 -3.1,-2 -7.1,-3.4 -9.9,-1.6 -8.5,17.6 -7.2,41.7 -7.2,61.6 -3.4,4.3 -6.9,1.4 -9.6,-1.4 -1,-20.5 -2.9,-36.1 2.4,-61.3 3.1,-9.9 8.2,-9.2 13.5,-11.2 13.2,-0.2 25.4,7.7 31.9,18.3 4.3,7.1 3,15.5 0.1,22.6 -3.7,5.1 -8.5,8.4 -13.8,10.6 5.3,3.8 12.5,7.7 29.3,14.5 2.1,5 -1.1,5.4 -3.7,8.2 z"
           id="path17"
           inkscape:connector-curvature="0"
           style="fill:#ffffff" /><path
           d="m 294,57 c -13.2,1.8 -18.2,2 -18.8,4.6 l 2,53.4 c 0,0 -3.1,3.9 -5.6,3.8 -4,-0.2 -5.2,-6.5 -5.2,-6.5 -1,-11.4 -3.1,-33 -2.6,-49.8 -2.4,-0.3 -4.9,1.3 -8.7,2.8 -4.9,1.8 -7.7,4.8 -10.2,1 -0.6,-0.9 0.1,-3.1 -2.5,-7.6 15.4,-7 31.4,-9.3 46.2,-11.5 8.4,1.2 18.1,-2.8 23.3,5.8 -4,5 -10,3 -17.9,4 z"
           id="path19"
           inkscape:connector-curvature="0"
           style="fill:#ffffff" /><path
           d="m 312.1,67 c -1.2,17.5 0.9,27.5 0.2,45.4 0,2.4 0.7,4.2 -0.6,6.1 -1.6,1.8 -5.9,1.6 -7.4,0.6 -1.9,-0.9 -3.3,-3.5 -3.1,-6.4 0.5,-9.8 -1.1,-54.6 0.4,-61.2 0.9,-4 12.6,-1.8 11.7,3.9 -1,5.2 -0.8,5.8 -1.2,11.6 z"
           id="path21"
           inkscape:connector-curvature="0"
           style="fill:#ffffff" /><path
           d="m 384.1,118.5 c -17.8,-4.6 -33.4,-11.9 -46.3,-24.2 -1.6,-11.9 8.6,-3.2 13.6,-8 5.5,-1.7 12.3,-5.9 13.2,-11.5 1,-8.1 -6.7,-12.5 -13.5,-16.6 -3.1,-2 -7.1,-3.4 -9.9,-1.6 -8.5,17.6 -7.2,41.7 -7.2,61.6 -3.4,4.3 -6.9,1.4 -9.6,-1.4 -1,-20.5 -2.9,-36.1 2.4,-61.3 3.1,-9.9 8.2,-9.2 13.5,-11.2 13.2,-0.2 25.4,7.7 31.9,18.3 4.3,7.1 3,15.5 0.1,22.6 -3.7,5.1 -8.5,8.4 -13.8,10.6 5.3,3.8 12.4,7.7 29.2,14.5 2.1,5 -1.1,5.4 -3.6,8.2 z"
           id="path23"
           inkscape:connector-curvature="0"
           style="fill:#ffffff" /></g><path
         d="m 315.2,34.3 c 0,4.5 -2.5,8.2 -5.5,8.2 -3,0 -5.5,-3.7 -5.5,-8.2 0,-4.5 2.5,-8.2 5.5,-8.2 3,0 5.5,3.7 5.5,8.2 z"
         id="path25"
         inkscape:connector-curvature="0"
         style="fill:#e0111a" /></g></g><g
     id="g27"
     transform="translate(-28.300649,-22.840909)"><g
       id="g29"><path
         d="m 222.1,142.3 c 0,0 -1.3,-0.4 -1.8,-0.9 -0.4,-0.5 -0.5,-1.7 -0.5,-1.7 L 221,124 c 1.8,-0.7 2.9,0.5 3.4,1.6 -1.2,4.2 -0.9,8.9 -1.3,13.2 2.9,-0.1 6.2,-0.7 8.9,-1.4 0,0 1.1,0.1 1.4,0.5 0.4,0.5 0.1,1.6 0.1,1.6 -3.2,2.1 -7.5,2.3 -11.4,2.8 z"
         id="path31"
         inkscape:connector-curvature="0"
         style="fill:#fac700" /><path
         d="m 233.8,124.6 -0.4,-2.2 c 1.8,-1.2 2.6,0.2 3.8,1.3 -0.5,1.7 -3,1.9 -3.4,0.9 z m 2.8,17.2 c -1.9,1.4 -3.5,-1.1 -3.1,-3 v -10.1 c 0.7,-1.6 3.5,-1 3.5,0.8 -0.7,3.8 -0.3,7.9 -0.4,12.3 z"
         id="path33"
         inkscape:connector-curvature="0"
         style="fill:#fac700" /><path
         d="m 242.3,142.5 c -0.6,0.3 -1.9,-0.3 -1.9,-0.3 -1.4,-2.2 -1.7,-5.7 -1.6,-8.8 0.1,-3.7 0.6,-6.9 0.5,-10.9 1.5,-0.4 3.2,0.6 3.1,2 -0.1,3.1 -0.4,6.8 -0.4,9.9 0,2.3 -0.1,4.1 0.8,6.4 0.1,0 0.5,1.6 -0.5,1.7 z"
         id="path35"
         inkscape:connector-curvature="0"
         style="fill:#fac700" /><path
         d="m 247.7,142.5 c -0.6,0.3 -1.9,-0.3 -1.9,-0.3 -1.4,-2.2 -1.7,-5.7 -1.6,-8.8 0.1,-3.7 0.6,-6.9 0.5,-10.9 1.5,-0.4 3.2,0.6 3.1,2 -0.1,3.1 -0.4,6.8 -0.4,9.9 0,2.3 -0.1,4.1 0.8,6.4 0.1,0 0.5,1.6 -0.5,1.7 z"
         id="path37"
         inkscape:connector-curvature="0"
         style="fill:#fac700" /><path
         d="m 252.5,142.5 c -2.2,-0.8 -3.5,-1.6 -3.6,-4.6 0.4,-4.3 3.7,-8.7 7.6,-9.9 1.9,-0.3 3.9,0.1 4.8,1.6 1.3,2.3 -1.2,6.8 -4.6,8.5 -1.1,0.3 -1.9,0.5 -3,0.2 -0.4,-0.2 -0.8,-0.5 -1.2,-0.8 -0.2,0.6 -0.1,1.2 0.4,1.5 3.1,2.1 7.5,-1.4 7.5,-1.4 1.2,1.1 1.6,1.7 1.4,2.8 -2.2,1.5 -6.2,3.2 -9.3,2.1 z m 1.4,-8 c 0.2,0.3 0.3,0.6 1,0.6 1.7,0.1 4.6,-3.6 3.3,-4.3 -1.5,-0.8 -3.5,1.8 -4.3,3.7 z"
         id="path39"
         inkscape:connector-curvature="0"
         style="fill:#fac700" /><path
         d="m 275,142.5 c -6.5,-2.5 -2.6,-10.5 -4.6,-14.7 0,0 -0.2,-1.8 0.3,-2.6 0.4,-0.6 1.8,-1.3 2.4,-1.6 3.1,1.8 6.1,0.2 9.6,0.1 0,0 0.9,0 1.1,0.4 0.3,0.3 0.1,1 0.1,1.3 -2.3,2.2 -7.6,2.6 -9.4,2.9 -0.2,0.1 0.1,0.9 0.4,1.6 2.6,-0.4 5.6,-1.2 8.6,-0.3 0,0 0.6,0.2 0.8,0.4 0.2,0.5 -0.9,1.1 -0.9,1.1 -3,1.6 -6.8,1.1 -8.6,2.3 0.1,1.7 -0.5,3.8 0.2,5.1 3.1,0.2 6.6,0.2 8.9,-1.8 0,0 1.6,-0.9 2.2,-0.7 0.8,0.5 0.7,2.4 0.6,2.7 -2.9,3.1 -7.4,3.2 -11.7,3.8 z"
         id="path41"
         inkscape:connector-curvature="0"
         style="fill:#fac700" /><path
         d="m 295.5,142.2 c -0.7,-1 -1,-2.4 -1.2,-3.8 -1.5,2.3 -3.6,4.4 -6.5,3.7 -3.8,-4.7 -1.3,-11.1 0.1,-16.2 5.4,0.5 2.1,4 1.7,6.6 -0.3,2.2 -0.5,4.4 0.5,6.2 0.2,0.4 1.1,-0.8 1.3,-1.1 2.9,-3.1 3.7,-10.1 4.2,-10.2 2,-0.8 1.6,0.9 2.6,0.9 0.1,4.3 -1.8,9 0.2,12.6 0.3,1.5 -1.8,2.1 -2.9,1.3 z"
         id="path43"
         inkscape:connector-curvature="0"
         style="fill:#fac700" /><path
         d="m 308.3,129.8 c -0.5,0.1 -0.3,-0.2 -1.3,0.5 -4.2,2.8 -2.9,8.8 -4.3,12 -2.1,0.3 -2.3,-1.9 -2.7,-3 0.3,-2.6 -0.8,-7.4 -0.4,-10 0.2,-0.9 1.4,-1.9 2.3,-1.4 0.3,0.1 0.6,1.4 0.9,2.7 1,-1.8 2.5,-3.3 3.6,-3.7 2.4,-1 4.2,0.7 3.4,2 -0.4,0.6 -0.4,0.7 -1.5,0.9 z"
         id="path45"
         inkscape:connector-curvature="0"
         style="fill:#fac700" /><path
         d="m 316.6,140.7 c -1.8,1.6 -4.4,2.9 -6.8,1.5 -3.8,-3.4 -0.9,-8.9 0.6,-12.7 2.2,-4.5 7.9,-0.8 8.6,2 0.7,3.3 -0.1,6.7 -2.4,9.2 z M 314,131 c -1.6,2.5 -3.9,5.6 -2.5,8.8 1.3,0.2 2.2,-1.1 2.9,-1.8 1.2,-1.7 1.7,-3.4 1.5,-5.6 -0.2,-0.9 -1,-2.5 -1.9,-1.4 z"
         id="path47"
         inkscape:connector-curvature="0"
         style="fill:#fac700" /><path
         d="m 329.1,129.8 c -0.5,0.1 -0.3,-0.2 -1.3,0.5 -4.2,2.8 -2.9,8.8 -4.3,12 -2.1,0.3 -2.3,-1.9 -2.7,-3 0.3,-2.6 -0.8,-7.4 -0.4,-10 0.2,-0.9 1.4,-1.9 2.3,-1.4 0.3,0.1 0.6,1.4 0.9,2.7 1,-1.8 2.5,-3.3 3.6,-3.7 2.4,-1 4.2,0.7 3.4,2 -0.4,0.6 -0.4,0.7 -1.5,0.9 z"
         id="path49"
         inkscape:connector-curvature="0"
         style="fill:#fac700" /><path
         d="m 332.7,142.4 c -2.2,-0.8 -3.5,-1.6 -3.7,-4.7 0.4,-4.4 3.7,-8.9 7.7,-10.1 1.9,-0.3 3.9,0.1 4.7,1.7 1.4,2.3 -1.2,6.9 -4.6,8.6 -1.1,0.3 -2,0.5 -3.1,0.2 -0.4,-0.2 -0.9,-0.5 -1.2,-0.8 -0.2,0.6 -0.1,1.2 0.4,1.6 3.1,2.1 7.6,-1.5 7.6,-1.5 1.2,1.1 1.6,1.7 1.4,2.9 -2,1.5 -6.1,3.3 -9.2,2.1 z m 2.9,-14.4 c -2.7,-1.3 -1.3,-3.1 -0.5,-3.8 l 6.4,-4 c 0.8,1.8 1.9,2.7 1,3.7 -2.1,1.4 -5,1.6 -6.9,4.1 z m -1.4,6.4 c 0.2,0.3 0.3,0.6 1,0.6 1.7,0.1 4.6,-3.7 3.3,-4.4 -1.5,-0.7 -3.5,1.9 -4.3,3.8 z"
         id="path51"
         inkscape:connector-curvature="0"
         style="fill:#fac700" /><path
         d="m 351.7,149.6 c -3,1.1 -5.3,-0.7 -6.7,-3 0.4,-0.9 0.5,-1.5 1.3,-1.8 2.2,-0.1 1.3,1.3 3.5,1.7 1.2,0.2 1.9,-0.8 2.2,-1.8 0.5,-1.7 0.6,-3.8 0.7,-5.5 -2.1,1.7 -4.3,4.1 -7.1,2.5 -2.2,-1.6 -3,-4.3 -1.8,-6.7 1.3,-2.7 3.8,-5.9 6.9,-6.7 2.3,-0.7 3.8,0.7 6.2,1.8 -2,6.5 0.8,17.5 -5.2,19.5 z m 0.5,-18.7 c -2.2,0.6 -5.5,4.1 -5.6,7.2 0.1,0.5 0.2,0.9 0.6,0.9 3.2,-1.4 5.9,-4.1 6,-7.6 -0.3,-0.2 -0.5,-0.7 -1,-0.5 z"
         id="path53"
         inkscape:connector-curvature="0"
         style="fill:#fac700" /><path
         d="m 359.5,124.6 -0.4,-2.2 c 1.8,-1.2 2.6,0.2 3.8,1.3 -0.4,1.7 -2.9,1.9 -3.4,0.9 z m 2.8,17.2 c -1.9,1.4 -3.5,-1.1 -3.1,-3 v -10.1 c 0.7,-1.6 3.5,-1 3.5,0.8 -0.7,3.8 -0.2,7.9 -0.4,12.3 z"
         id="path55"
         inkscape:connector-curvature="0"
         style="fill:#fac700" /><path
         d="m 372.8,140.7 c -1.8,1.6 -4.4,2.9 -6.8,1.5 -3.8,-3.4 -0.9,-8.9 0.6,-12.7 2.2,-4.5 7.9,-0.8 8.6,2 0.7,3.3 -0.2,6.7 -2.4,9.2 z m -2.6,-9.7 c -1.6,2.5 -3.9,5.6 -2.5,8.8 1.3,0.2 2.2,-1.1 2.9,-1.8 1.2,-1.7 1.7,-3.4 1.5,-5.6 -0.3,-0.9 -1,-2.5 -1.9,-1.4 z"
         id="path57"
         inkscape:connector-curvature="0"
         style="fill:#fac700" /><path
         d="m 387.5,142.4 c -0.8,0.7 -1.3,0.8 -2,0.5 -0.3,-0.2 -0.6,-0.8 -0.7,-1.6 0.7,-3 0.5,-6.2 0,-9.8 -0.2,-0.6 -0.2,-1.5 -0.8,-1.6 -1.1,-0.1 -1.8,1.3 -2.4,2.7 -0.8,1.9 -1.1,4.1 -1.1,6.3 -0.2,1.1 0.6,2.8 -1.1,3.3 -2.1,-0.5 -2.2,-2 -2.2,-3.5 0,-5.3 -0.5,-7.1 -0.1,-9.7 0.9,-0.9 1.9,-0.8 2.4,-0.4 0.1,0.1 0.2,0.4 0.3,0.6 2.4,-3.4 7.1,-3.4 8.2,0.6 1.1,4.8 1,9 -0.5,12.6 z"
         id="path59"
         inkscape:connector-curvature="0"
         style="fill:#fac700" /></g></g></svg>